<?xml version="1.0" standalone="no"?>
<!DOCTYPE svg PUBLIC "-//W3C//DTD SVG 20010904//EN"
 "http://www.w3.org/TR/2001/REC-SVG-20010904/DTD/svg10.dtd">
<svg version="1.0" xmlns="http://www.w3.org/2000/svg"
 width="1080.000000pt" height="1080.000000pt" viewBox="0 0 1080.000000 1080.000000"
 preserveAspectRatio="xMidYMid meet">
<metadata>
Created by potrace 1.11, written by Peter Selinger 2001-2013
</metadata>
<g transform="translate(0.000000,1080.000000) scale(0.100000,-0.100000)"
fill="#000000" stroke="none">
<path d="M5055 10789 c-1034 -65 -2060 -444 -2890 -1067 -309 -231 -665 -568
-902 -852 -684 -821 -1106 -1804 -1228 -2860 -156 -1360 221 -2750 1043 -3845
301 -401 686 -786 1087 -1087 1012 -760 2296 -1146 3555 -1068 736 46 1422
229 2080 556 553 275 980 582 1420 1023 444 444 762 893 1041 1465 659 1355
715 2926 155 4346 -72 181 -238 524 -341 701 -240 415 -511 766 -860 1115
-431 431 -862 742 -1407 1015 -847 424 -1801 618 -2753 558z m-3221 -4651 c65
-359 122 -656 125 -660 4 -4 72 289 151 652 l144 660 221 0 220 0 144 -653
c79 -358 147 -657 150 -664 3 -6 60 282 125 640 65 359 121 658 124 665 3 9
64 12 259 12 237 0 254 -1 249 -17 -2 -10 -105 -492 -227 -1070 l-223 -1053
-267 0 c-204 0 -268 3 -271 13 -3 6 -67 278 -144 604 -76 326 -140 591 -142
588 -2 -2 -66 -273 -141 -602 l-138 -598 -74 -6 c-41 -3 -61 -6 -45 -7 63 -4
165 -36 256 -79 176 -84 304 -246 362 -458 21 -77 22 -98 23 -578 l0 -499 -28
-24 c-34 -29 -85 -32 -118 -5 l-24 19 -6 489 c-6 531 -8 549 -64 668 -98 206
-343 322 -606 286 -159 -21 -278 -78 -368 -177 -58 -63 -97 -138 -111 -213 -6
-32 -10 -256 -10 -548 l0 -494 -25 -24 c-27 -28 -88 -34 -116 -12 -39 30 -39
34 -39 815 0 750 0 760 20 785 36 46 111 45 147 -2 8 -10 12 -52 13 -109 l0
-94 64 59 c107 97 232 162 365 188 l66 13 -110 3 -109 4 -222 1043 c-122 574
-225 1054 -228 1067 l-6 25 258 0 257 0 119 -652z m3596 452 l0 -200 -480 0
-480 0 0 -225 0 -225 405 0 405 0 0 -190 0 -190 -405 0 -405 0 0 -255 0 -255
480 0 480 0 0 -200 0 -200 -702 -1 c-455 -1 -678 -5 -633 -10 356 -45 629
-293 712 -646 16 -69 18 -127 18 -521 l0 -444 -28 -24 c-38 -32 -90 -32 -122
1 -24 23 -25 29 -25 162 l-1 138 -21 -30 c-40 -56 -163 -170 -222 -204 -233
-137 -559 -146 -812 -21 -210 105 -368 303 -426 536 -30 123 -30 323 1 439 43
163 142 323 261 422 122 101 300 177 444 190 l76 6 0 1073 0 1074 740 0 740 0
0 -200z m1221 185 c172 -22 307 -75 434 -167 6 -4 -48 -65 -124 -142 l-135
-135 -27 20 c-100 71 -267 119 -414 119 -333 0 -619 -208 -721 -525 l-23 -70
-1 458 0 457 453 0 c332 0 480 -4 558 -15z m604 -522 c12 -121 -24 -267 -87
-354 l-31 -43 -27 81 c-15 44 -43 109 -62 144 l-36 64 111 113 c126 127 119
127 132 -5z m-23 -706 c44 -69 68 -164 68 -272 0 -81 -21 -219 -35 -233 -3 -4
-61 49 -129 117 l-123 122 49 97 c35 68 54 123 66 184 l17 87 28 -27 c15 -15
42 -48 59 -75z m-1513 -194 c186 -348 628 -492 989 -323 35 16 76 38 91 49
l27 20 143 -143 143 -143 -49 -31 c-65 -42 -123 -67 -213 -91 -121 -33 -227
-41 -545 -42 -274 -1 -295 -2 -240 -14 154 -34 292 -130 376 -262 l27 -44 46
64 c76 107 199 194 331 233 91 28 278 25 365 -5 157 -54 279 -163 350 -314 27
-55 27 -58 12 -100 -8 -23 -17 -80 -20 -127 -5 -101 14 -188 58 -267 l30 -53
0 -365 0 -366 -25 -24 c-46 -47 -136 -25 -150 38 -3 12 -6 252 -8 532 -3 444
-5 516 -20 558 -83 240 -268 364 -492 329 -100 -16 -174 -51 -241 -114 -60
-57 -92 -104 -121 -183 -16 -46 -18 -98 -23 -593 l-5 -544 -28 -24 c-34 -29
-85 -32 -118 -5 l-24 19 -6 519 c-7 566 -7 570 -69 693 -74 146 -223 241 -378
240 -60 0 -166 -27 -227 -56 -67 -33 -161 -129 -194 -199 -47 -101 -51 -146
-51 -683 l0 -503 -25 -24 c-40 -41 -121 -29 -144 22 -8 17 -11 248 -11 782 0
749 0 759 20 784 27 34 78 44 118 23 37 -19 42 -32 42 -117 0 -38 3 -69 6 -69
3 0 17 14 31 30 32 38 138 115 189 137 22 9 71 24 109 34 l70 18 -112 0 -113
1 0 453 1 452 23 -70 c12 -39 37 -98 55 -132z m3346 -743 c312 -98 506 -359
531 -717 7 -89 6 -92 -19 -117 l-26 -26 -541 0 c-297 0 -540 3 -540 6 0 3 8
18 18 32 10 15 26 46 37 70 l18 42 439 0 438 0 0 33 c0 88 -64 247 -133 332
-113 139 -257 205 -445 205 -134 0 -229 -28 -338 -99 l-30 -20 -63 63 -62 63
63 41 c75 49 165 87 252 107 94 22 311 14 401 -15z m-787 -1042 c18 -72 89
-186 156 -253 126 -125 261 -179 451 -179 160 0 293 41 400 124 63 49 112 54
150 15 38 -37 33 -71 -18 -119 -86 -83 -282 -164 -450 -186 -100 -14 -241 0
-346 32 -157 48 -303 152 -396 283 -45 62 -109 188 -120 236 -6 24 -4 26 57
38 35 7 71 17 79 22 22 14 30 11 37 -13z"/>
<path d="M3885 4469 c-148 -23 -258 -80 -370 -193 -131 -132 -188 -273 -189
-466 0 -135 15 -203 71 -319 156 -324 557 -454 893 -290 161 79 289 242 336
429 23 88 23 255 0 340 -62 234 -219 406 -437 475 -88 27 -217 38 -304 24z"/>
</g>
</svg>
